<?xml version="1.0" encoding="utf-8"?>
<!-- Generator: Adobe Illustrator 19.1.0, SVG Export Plug-In . SVG Version: 6.00 Build 0)  -->
<svg version="1.1" id="Capa_1" xmlns="http://www.w3.org/2000/svg" xmlns:xlink="http://www.w3.org/1999/xlink" x="0px" y="0px"
	 width="195.3px" height="65.5px" viewBox="0 0 195.3 65.5" style="enable-background:new 0 0 195.3 65.5;" xml:space="preserve">
<style type="text/css">
	.st0{fill:#0098A6;}
	.st1{fill:#B2D466;}
</style>
<g>
	<path class="st0" d="M55.1,1.1c-4.8-0.3-8.9,2.4-12.1,5.3c-6.1,5.4-8.4,7.3-8.4,7.3s-2.2-1.9-8.4-7.3C23,3.6,18.9,0.8,14.1,1.1
		C2.5,1.9,1.5,12.7,1.5,12.7v3v35c0,6.3,4.6,13.7,14.6,13.7c17.3,0,15.4-16.2,15.4-16.2l-8.2-9.6v-2.5l11.2,10.4l11.2-10.4v2.5
		l-8.2,9.6c0,0-3,16.2,15.4,16.2c10,0,14.6-7.4,14.6-13.7v-35v-3C67.6,12.7,66.6,1.9,55.1,1.1"/>
	<path class="st1" d="M49.4,31.8c0,0,2.3-3.3,0.8-7.4c-0.7-1.9-3.4-4.7-7.3-4.7c-1.9,0-3.4,0.4-4.6,0.9c-3.1,1.5-3.8,4-3.8,4
		c0,0-0.7-2.5-3.8-4c-1.2-0.5-2.7-0.9-4.6-0.9c-3.9,0-6.6,2.8-7.3,4.7c-1.5,4,0.8,7.4,0.8,7.4s-5.9,0.5-5.3,5.9c0.6,6.1,8,7.7,8,7.7
		s-0.5,3.7,3.1,5.1c1.5,0.6,3.1,0.5,4.8-0.6c1-0.7,1.4-1.8,1.4-1.8l-8.2-9.6v-2.5l11.2,10.4h0l0,0l11.2-10.4v2.5l-8.2,9.6
		c0,0,0.4,1.1,1.4,1.8c1.6,1.1,3.2,1.2,4.8,0.6c3.6-1.4,3.1-5.1,3.1-5.1s7.4-1.6,8-7.7C55.3,32.3,49.4,31.8,49.4,31.8"/>
	<g>
		<path class="st0" d="M95.1,13.4c2.1,0,3.7,0.6,4.9,1.7c1.2,1.1,1.7,2.7,1.7,4.7v9.3H98v-9.5c0-1-0.2-1.7-0.7-2.2
			c-0.5-0.5-1.4-0.8-2.8-0.8c-1.1,0-2.1,0.1-3.2,0.4c0.4,0.5,0.7,1.5,0.7,2.9v9.3h-3.7v-9.6c0-0.9-0.2-1.7-0.7-2.1
			c-0.5-0.5-1.4-0.7-2.7-0.7c-0.9,0-1.7,0.1-2.6,0.2v12.2h-3.7V15.2c2.3-1.2,4.6-1.7,6.8-1.7c1.7,0,3.1,0.4,4.2,1.1
			C91.5,13.8,93.3,13.4,95.1,13.4"/>
		<path class="st0" d="M111.7,26.2c1.8,0,3.6-0.4,5.2-1.2v3c-1.7,0.9-3.6,1.4-5.8,1.4c-0.7,0-1.3-0.1-1.9-0.2
			c-0.6-0.1-1.2-0.3-1.9-0.7c-0.6-0.4-1.2-0.8-1.7-1.3c-0.5-0.5-0.8-1.3-1.1-2.3c-0.3-1-0.4-2.1-0.4-3.3c0-2.5,0.5-4.5,1.6-5.9
			c1.1-1.5,2.8-2.2,5.2-2.2c2.3,0,4,0.7,5.1,2.2c1.2,1.4,1.7,3.2,1.7,5.3c0,0.9,0,1.5-0.1,1.9h-10c0.1,1.3,0.5,2.2,1.2,2.7
			C109.7,25.9,110.6,26.2,111.7,26.2 M113,17.6c-0.5-0.7-1.3-1.1-2.2-1.1c-0.9,0-1.6,0.3-2.2,0.9c-0.5,0.6-0.8,1.6-0.9,2.9h6.2
			C113.9,19.2,113.6,18.3,113,17.6"/>
		<path class="st0" d="M127,13.4c2.1,0,3.8,0.6,5,1.7c1.2,1.1,1.8,2.7,1.8,4.7v9.3h-3.7v-9.6c0-0.4,0-0.8-0.1-1
			c-0.1-0.3-0.2-0.6-0.5-0.9c-0.2-0.3-0.6-0.5-1.1-0.7c-0.5-0.2-1.2-0.2-2-0.2c-0.9,0-1.9,0.1-2.9,0.3v12.1H120v-14
			C122.2,14,124.6,13.4,127,13.4"/>
		<path class="st0" d="M136.2,21.2c0-2.5,0.6-4.4,1.8-5.7c1.2-1.3,3-2,5.3-2c0.8,0,1.7,0.1,2.6,0.2V7.8h3.7v16.3
			c0,1.4-0.5,2.6-1.6,3.7c-1.1,1-2.7,1.5-4.9,1.5c-0.5,0-1,0-1.5-0.1c-0.5-0.1-1.1-0.3-1.8-0.6c-0.7-0.3-1.3-0.8-1.8-1.3
			c-0.5-0.5-0.9-1.3-1.3-2.4C136.4,23.8,136.2,22.6,136.2,21.2 M139.9,21.1c0,1.8,0.2,3.1,0.7,3.9c0.5,0.8,1.3,1.2,2.5,1.2
			c1.9,0,2.8-0.6,2.8-1.7v-7.9c-0.7-0.2-1.5-0.2-2.4-0.3c-1.2,0-2,0.3-2.6,1C140.2,18.1,139.9,19.3,139.9,21.1"/>
		<path class="st0" d="M153.4,15.5c1.3-1.4,3.1-2,5.4-2c2.3,0,4.1,0.7,5.4,2c1.3,1.4,1.9,3.3,1.9,5.9s-0.6,4.5-1.9,5.9
			c-1.3,1.4-3.1,2-5.4,2c-2.3,0-4.1-0.7-5.4-2c-1.3-1.4-1.9-3.3-1.9-5.9S152.1,16.9,153.4,15.5 M156.1,25.3c0.6,0.7,1.5,1,2.7,1
			s2.1-0.3,2.7-1c0.6-0.7,0.9-2,0.9-3.9c0-1.9-0.3-3.2-0.9-3.9c-0.6-0.7-1.5-1-2.7-1s-2.1,0.3-2.7,1c-0.6,0.7-0.9,2-0.9,3.9
			C155.2,23.4,155.5,24.7,156.1,25.3"/>
		<polygon class="st0" points="179.1,17.1 171.8,25.8 179,25.8 179,29.1 167.3,29.1 167.3,25.7 174.4,17 167.4,17 167.4,13.7 
			179.1,13.7 		"/>
		<path class="st0" d="M187,13.5c2.2,0,3.9,0.6,5,1.7c1.2,1.1,1.7,2.7,1.7,4.9v4.2c0,1.4-0.5,2.6-1.6,3.7c-1.1,1-2.7,1.5-4.9,1.5
			c-2.3,0-3.9-0.5-5-1.5c-1.1-1-1.6-2.3-1.6-3.8c0-0.3,0-0.6,0.1-1c0.1-0.3,0.2-0.7,0.5-1.2c0.3-0.5,0.6-0.9,1.1-1.3
			c0.4-0.4,1.1-0.7,2-1c0.9-0.3,1.9-0.4,3.1-0.4c0.8,0,1.7,0.1,2.7,0.2c0-1.9-1.1-2.9-3.3-2.9c-1.7,0-3.2,0.3-4.5,0.8v-3
			C183.7,13.8,185.3,13.5,187,13.5 M190.1,23.7v-1.9c-0.9-0.1-1.6-0.2-2.2-0.2c-2.3,0-3.5,0.7-3.5,2c0,1.6,1,2.4,2.9,2.4
			C189.2,26,190.1,25.3,190.1,23.7"/>
	</g>
	<g>
		<path class="st1" d="M86.4,52.9c1.4,0,2.7-0.3,3.8-0.8v3.1c-1.3,0.5-2.8,0.9-4.4,0.9c-4.7,0-7.2-2.8-7.2-7.9
			c0-5.1,2.6-7.9,7.2-7.9c1.6,0,3.1,0.3,4.4,0.9v3.1c-1.1-0.5-2.4-0.7-3.8-0.7c-2.6,0-4.2,0.8-4.2,4.7
			C82.3,52.1,83.9,52.9,86.4,52.9"/>
		<path class="st1" d="M91.6,35.1h3.8v3.4h-3.8V35.1z M91.7,40.5h3.7v15.3h-3.7V40.5z"/>
		<path class="st1" d="M111.7,40.5v8.4c0,4.5-2.6,7.2-6.9,7.2c-4.3,0-6.9-2.7-6.9-7.2v-8.4h3.7v8.8c0,2.4,0.9,3.5,3.2,3.5
			c2.3,0,3.2-1,3.2-3.5v-8.8H111.7z"/>
		<path class="st1" d="M120.6,40.3c0.9,0,1.7,0.1,2.5,0.2v-5.8h3.7v16.2c0,2.5-1.7,5.1-6.5,5.1c-2.1,0-6.8-0.8-6.8-8
			C113.5,43,116,40.3,120.6,40.3 M120.3,52.9c1.7,0,2.8-0.4,2.8-1.7v-7.8c-0.7-0.2-1.5-0.2-2.4-0.2c-2.1,0-3.5,1-3.5,4.6
			C117.2,51.3,118,52.9,120.3,52.9"/>
		<path class="st1" d="M141.1,46.8v4.1c0,2.5-1.7,5.1-6.4,5.1c-4.8,0-6.5-2.7-6.5-5.2c0-1.1,0.5-4.8,6.6-4.8c1,0,1.9,0.1,2.7,0.2
			c0-1.7-0.9-2.9-3.2-2.9c-1.8,0-3.3,0.3-4.5,0.8v-3c1.3-0.5,2.8-0.9,4.7-0.9C138.7,40.3,141.1,42.6,141.1,46.8 M137.4,48.5
			c-0.6-0.1-1.4-0.2-2.2-0.2c-2.5,0-3.5,0.7-3.5,2c0,1.6,1,2.4,2.9,2.4c2,0,2.8-0.9,2.8-2.3V48.5z"/>
		<path class="st1" d="M149.3,40.3c0.9,0,1.7,0.1,2.5,0.2v-5.8h3.7v16.2c0,2.5-1.7,5.1-6.5,5.1c-2,0-6.8-0.8-6.8-8
			C142.3,43,144.8,40.3,149.3,40.3 M149.1,52.9c1.7,0,2.8-0.4,2.8-1.7v-7.8c-0.7-0.2-1.5-0.2-2.4-0.2c-2.1,0-3.5,1-3.5,4.6
			C145.9,51.3,146.7,52.9,149.1,52.9"/>
	</g>
</g>
</svg>
