<svg xmlns="http://www.w3.org/2000/svg" width="699.846" height="88.649" viewBox="0 0 699.846 88.649"><defs><style>.a,.b,.c{fill:#00a7e0;}.a{opacity:0.2;}.b{opacity:0.6;}.d{fill:#fff;}</style></defs><g transform="translate(-200.154 -197.759)"><g transform="translate(200.154 197.759)"><rect class="a" width="6.341" height="6.341" transform="translate(44.331 0.044) rotate(90)"/><rect class="b" width="6.341" height="6.341" transform="translate(37.999 0.035) rotate(90)"/><rect class="a" width="6.341" height="6.341" transform="translate(50.654 6.36) rotate(90)"/><rect class="b" width="6.341" height="6.341" transform="translate(44.322 6.376) rotate(90)"/><rect class="a" width="6.341" height="6.341" transform="translate(56.977 12.701) rotate(90)"/><rect class="b" width="6.341" height="6.341" transform="translate(50.645 12.692) rotate(90)"/><rect class="a" width="6.341" height="6.341" transform="translate(63.325 19.041) rotate(90)"/><rect class="b" width="6.341" height="6.341" transform="translate(63.316 25.373) rotate(90)"/><rect class="b" width="6.341" height="6.341" transform="translate(56.993 19.033) rotate(90)"/><path class="c" d="M176.694,138.3v-6.341h-6.341V138.3h-38v-6.341h38.02v-6.341h-6.341v-6.341H157.7v-6.341h-6.341V106.6H119.7v88.649h63.31V138.3Zm-6.341,37.971h-38v-6.341h38v6.341Zm0-12.657h-38v-6.341h38v6.341Zm0-12.657h-38V144.62h38v6.341Z" transform="translate(-119.7 -106.6)"/></g><g transform="translate(310.359 222.469)"><path class="d" d="M613.883,258.661c-11.682,0-20.583-7.267-20.583-20.583,0-12.511,8.975-20.778,20.705-20.778,11.755,0,20.656,7.194,20.656,20.534C634.637,250.321,625.613,258.661,613.883,258.661Zm0-33.265c-6.682,0-10.487,5.048-10.487,12.438,0,7.585,3.926,12.755,10.682,12.755,6.633,0,10.487-5.121,10.487-12.511C624.54,230.494,620.565,225.4,613.883,225.4Z" transform="translate(-593.3 -213.764)"/><path class="d" d="M805.049,258.7c7.268,0,12.56,5.926,12.56,15.291,0,9.731-6.755,15.9-14.706,15.9a22.231,22.231,0,0,1-6.073-.951v13.145H787.1V260.163l9.731-1.195V262.7C798.684,260.8,801.318,258.7,805.049,258.7Zm-8.219,22.754a8.059,8.059,0,0,0,4.487,1.195c4.17,0,6.56-3.292,6.56-8.145,0-5.048-2.146-8.023-6.121-8.023a6.911,6.911,0,0,0-4.926,2.024C796.83,268.431,796.83,281.454,796.83,281.454Z" transform="translate(-739.837 -245.067)"/><path class="d" d="M937.835,276.649c.317,3.926,3.024,6.194,7.755,6.194a19.945,19.945,0,0,0,9.609-2.853l.951,7.511a26.4,26.4,0,0,1-11.438,2.39c-9.974,0-16.413-5.56-16.413-15.34,0-9.609,6.56-15.852,15.9-15.852,8.341,0,12.877,5,12.877,12.316a21.141,21.141,0,0,1-.634,5.17l-18.632.317v.146Zm10.218-5.048v-.561c0-3.463-1.463-5.609-4.487-5.609-3.341,0-5.365,2.9-5.682,6.243Z" transform="translate(-846.602 -245.067)"/><path class="d" d="M1088.017,289.089V271.725c0-3.536-1.585-4.682-4.17-4.682a8.168,8.168,0,0,0-5.316,2.219v19.827H1068.8v-28.85l9.731-1.2v4.8c2.585-2.975,6.072-5.048,9.852-5.048,5.877,0,9.34,3.853,9.34,10.1v20.193Z" transform="translate(-952.837 -245.143)"/><path class="d" d="M1290.945,260.659H1276.8V221.2h14.828c13.9,0,21.778,7.706,21.778,19.437C1313.43,252.782,1305.406,260.659,1290.945,260.659Zm.049-31.435h-4.146V252.66h4.683c7.267,0,11.8-3.731,11.8-11.608C1303.309,232.882,1299.212,229.223,1290.993,229.223Z" transform="translate(-1110.111 -216.713)"/><path class="d" d="M1461.437,285.553c-2.073,2.463-4.414,4.487-8.463,4.487-5.048,0-8.975-3.609-8.975-8.145,0-5.56,4.17-10.048,17.364-10.413v-.561c0-3.1-1.585-4.487-5.17-4.487-3.024,0-6.56,1.268-9.974,2.975l-2.024-7.146a29.633,29.633,0,0,1,13.51-3.463c10.17,0,13.511,4.609,13.389,12.828l-.073,8.706c0,2.024.39,2.219,2.39,2.39l-.951,6.95c-6.39.829-9.536-.878-10.852-4.1h-.171Zm-.049-9.536c-6,.683-8.219,1.829-8.219,4.414,0,1.9,1.512,3.146,3.658,3.146a6.021,6.021,0,0,0,4.536-1.951v-5.609Z" transform="translate(-1236.536 -245.143)"/><path class="d" d="M1585.379,272.347c-7.267,0-11.169-2.975-10.8-10.682l.439-11.169-4.414-.756.2-6.194,4.414-1.463.122-6.682h9.414l-.073,7h7.316l-.2,7.633h-7.828l-.317,10.535c-.122,2.707,1.463,3.853,3.853,3.853a12.676,12.676,0,0,0,3.853-.756l1.146,7.585A20.808,20.808,0,0,1,1585.379,272.347Z" transform="translate(-1332.261 -227.45)"/><path class="d" d="M1691.337,285.553c-2.073,2.463-4.414,4.487-8.463,4.487-5.048,0-8.974-3.609-8.974-8.145,0-5.56,4.17-10.048,17.364-10.413v-.561c0-3.1-1.585-4.487-5.17-4.487-3.024,0-6.56,1.268-9.975,2.975l-2.024-7.146a29.635,29.635,0,0,1,13.511-3.463c10.169,0,13.51,4.609,13.389,12.828l-.073,8.706c0,2.024.39,2.219,2.39,2.39l-.951,6.95c-6.39.829-9.536-.878-10.852-4.1h-.171Zm-.049-9.536c-6,.683-8.219,1.829-8.219,4.414,0,1.9,1.512,3.146,3.658,3.146a6.02,6.02,0,0,0,4.536-1.951v-5.609Z" transform="translate(-1410.369 -245.143)"/><path class="d" d="M1888.2,249.172l-3.853.073v11.413H1874.3V221.2h14.583c11.048,0,16.852,5.56,16.852,13.706C1905.76,244.124,1899.517,249.172,1888.2,249.172Zm-.049-20.022H1884.1v12.316l4.048-.073c5.17-.073,7.634-2.268,7.634-6.243S1893.2,229.15,1888.152,229.15Z" transform="translate(-1561.896 -216.713)"/><path class="d" d="M2030.808,289.965c-8.828,0-15.608-5.56-15.608-15.535s7.073-15.73,15.974-15.73c8.828,0,15.535,5.682,15.535,15.535S2039.587,289.965,2030.808,289.965Zm.122-23.875c-3.975,0-6.072,3.219-6.072,8.267,0,5,2.146,8.145,6.121,8.145s6.073-3.146,6.073-8.219C2037.051,269.382,2034.905,266.089,2030.93,266.089Z" transform="translate(-1668.434 -245.067)"/><path class="d" d="M2166.4,249.922V208.195l9.73-1.195v42.922Z" transform="translate(-1782.76 -205.976)"/><path class="d" d="M2236.855,213.213c-3.536,0-5.755-1.829-5.755-5.17,0-3.414,2.219-5.243,5.755-5.243,3.609,0,5.755,1.829,5.755,5.243C2242.61,211.384,2240.464,213.213,2236.855,213.213ZM2232,246.746V217.9l9.731-1.195v30.045Z" transform="translate(-1831.681 -202.8)"/><path class="d" d="M2312.9,289.965c-9.731,0-15.9-5.438-15.9-15.413,0-9.731,6.317-15.852,16.169-15.852a22.514,22.514,0,0,1,10.682,2.463l-1.9,7.316a16.581,16.581,0,0,0-7.755-2.268c-4.682,0-7.267,3.292-7.267,8.023,0,5.243,2.975,8.145,7.511,8.145a14.443,14.443,0,0,0,7.755-2.219l1.463,7.389C2321.168,289.087,2317.119,289.965,2312.9,289.965Z" transform="translate(-1881.51 -245.067)"/><path class="d" d="M2431.845,290.5l-1.462,3.853c-3.025,8.584-6.683,11.169-12.877,11.169a20.108,20.108,0,0,1-8.706-1.9l2.9-7.389a10.848,10.848,0,0,0,4.537,1.317c2.073,0,3.024-.756,4.17-3.609l.83-2.268L2409.751,262.5h10.413l6.243,19.315,5.682-19.315h10.365Z" transform="translate(-1966.045 -247.941)"/><path class="d" d="M2621.6,260.659V221.2h10.048v31.07h16.535v8.389Z" transform="translate(-2126.948 -216.713)"/><path class="d" d="M2764.536,285.553c-2.073,2.463-4.414,4.487-8.462,4.487-5.049,0-8.975-3.609-8.975-8.145,0-5.56,4.171-10.048,17.364-10.413v-.561c0-3.1-1.585-4.487-5.169-4.487-3.025,0-6.561,1.268-9.975,2.975l-2.025-7.146A29.641,29.641,0,0,1,2760.8,258.8c10.17,0,13.51,4.609,13.389,12.828l-.049,8.682c0,2.024.39,2.219,2.39,2.39l-.951,6.95c-6.389.829-9.535-.878-10.853-4.1Zm-.049-9.536c-6,.683-8.219,1.829-8.219,4.414,0,1.9,1.512,3.146,3.658,3.146a6.02,6.02,0,0,0,4.536-1.951v-5.609Z" transform="translate(-2221.842 -245.143)"/><path class="d" d="M2901.778,250.8a22.373,22.373,0,0,1-6.634-1.2L2886,250.873V208.195L2895.73,207v16.608a11.472,11.472,0,0,1,8.267-3.975c7.267,0,12.51,5.926,12.51,15.291C2916.484,244.63,2909.729,250.8,2901.778,250.8Zm-1.146-23.412a6.912,6.912,0,0,0-4.927,2.024v12.95a8.059,8.059,0,0,0,4.487,1.195c4.171,0,6.561-3.292,6.561-8.145C2906.753,230.363,2904.607,227.388,2900.633,227.388Z" transform="translate(-2326.868 -205.976)"/><rect class="c" width="9.536" height="9.536" transform="translate(161.144 35.209) rotate(90)"/><rect class="c" width="9.536" height="9.536" transform="translate(308.063 35.224) rotate(90)"/><rect class="c" width="9.536" height="9.536" transform="translate(486.849 35.223) rotate(90)"/></g></g></svg>