<?xml version="1.0" encoding="utf-8"?>
<!-- Generator: Adobe Illustrator 19.1.0, SVG Export Plug-In . SVG Version: 6.00 Build 0)  -->
<svg version="1.1" xmlns="http://www.w3.org/2000/svg" xmlns:xlink="http://www.w3.org/1999/xlink" x="0px" y="0px" width="1200px"
	 height="1036.7px" viewBox="0 0 1200 1036.7" style="enable-background:new 0 0 1200 1036.7;" xml:space="preserve">
<style type="text/css">
	.st0{opacity:0.8;}
	.st1{fill:url(#SVGID_1_);}
	.st2{fill:url(#SVGID_2_);}
	.st3{fill:#6F9B97;}
	.st4{fill:#528782;}
	.st5{fill:#57948B;}
	.st6{fill:#4ABCC4;}
	.st7{fill:#44AEB5;}
	.st8{fill:#388E94;}
	.st9{opacity:0.15;}
	.st10{fill:#45736B;}
	.st11{opacity:5.000000e-02;}
	.st12{opacity:0.3;}
	.st13{fill:none;}
	.st14{fill:url(#SVGID_3_);}
	.st15{fill:url(#SVGID_4_);}
	.st16{fill:url(#SVGID_5_);}
	.st17{fill:url(#SVGID_6_);}
	.st18{fill:url(#SVGID_7_);}
	.st19{fill:url(#SVGID_8_);}
	.st20{fill:url(#SVGID_9_);}
	.st21{fill:url(#SVGID_10_);}
	.st22{fill:url(#SVGID_11_);}
	.st23{fill:url(#SVGID_12_);}
	.st24{fill:url(#SVGID_13_);}
	.st25{fill:url(#SVGID_14_);}
</style>
<g id="BG">
</g>
<g id="Design">
	<g class="st0">
		
			<linearGradient id="SVGID_1_" gradientUnits="userSpaceOnUse" x1="-8980.9492" y1="688.3421" x2="-8696.7686" y2="688.3421" gradientTransform="matrix(-1 0 0 1 -8528.4385 0)">
			<stop  offset="0" style="stop-color:#DEF6FC"/>
			<stop  offset="0.9959" style="stop-color:#E7EDEC"/>
		</linearGradient>
		<path class="st1" d="M209.4,684.6c4.5,0,8.7,0.7,12.8,2c-2.1-4.6-3.3-9.7-3.3-15c0-19.7,15.9-35.6,35.6-35.6
			c7.4,0,14.3,2.3,20,6.1c7.6-18.9,26-32.3,47.6-32.3c24.9,0,45.7,17.8,50.3,41.4c6.4-2.3,13.3-3.6,20.5-3.6
			c32.9,0,59.6,26.7,59.6,59.6c0,32.9-26.7,59.6-59.6,59.6H209.4c-22.7,0-41.1-18.4-41.1-41.1S186.7,684.6,209.4,684.6z"/>
		
			<linearGradient id="SVGID_2_" gradientUnits="userSpaceOnUse" x1="-8980.9492" y1="711.1453" x2="-8696.7695" y2="711.1453" gradientTransform="matrix(-1 0 0 1 -8528.4385 0)">
			<stop  offset="0" style="stop-color:#DAEFFF"/>
			<stop  offset="0.9959" style="stop-color:#E3E3E3"/>
		</linearGradient>
		<path class="st2" d="M370.7,744.6c32.9,0,59.6-26.7,59.6-59.6c0-10.8-2.9-20.8-7.9-29.6c17.9,10.3,30,29.6,30,51.7
			c0,32.9-26.7,59.6-59.6,59.6H209.4c-17.1,0-31.8-10.5-38-25.3c4.9,2,10.2,3.1,15.8,3.1H370.7z"/>
	</g>
	
		<image style="overflow:visible;opacity:0.8;" width="2082" height="468" xlink:href="F1AF76CE364FD9BD.png"  transform="matrix(0.24 0 0 0.24 350.2013 875.0295)">
	</image>
	<g>
		<g>
			<g>
				<path class="st3" d="M600.1,25.3c-87.6,117.1,0,158.1,0,158.1S687.7,142.3,600.1,25.3z"/>
				<path class="st4" d="M626.3,129.5c-2.4,2.7-4.7,5.5-7.1,8.2c-2.3,2.7-4.7,5.5-6.9,8.3c-2.3,2.8-4.8,5.4-6.8,8.4
					c-1,1.5-2,3-2.9,4.6c-0.4,0.7-0.8,1.3-1.1,2c0.1-3,0.2-6.1,0.2-9.1c0.2-7.2,0-14.3-0.1-21.5c0.8-0.7,1.5-1.4,2.3-2.1
					c1.1-1.1,2.2-2.2,3.2-3.4c2.1-2.3,3.6-5,5.4-7.5c1.8-2.5,3.5-5,5.3-7.6c1.7-2.6,3.5-5.1,5.1-7.7l-0.2-0.2
					c-2.1,2.3-4.1,4.6-6.1,6.9c-2,2.3-4,4.7-6,7c-2,2.4-4.2,4.5-5.9,7.1c-0.9,1.3-1.7,2.6-2.5,3.9c-0.2,0.4-0.4,0.7-0.6,1.1
					c-0.1-2.6-0.1-5.2-0.1-7.8l-0.5-31.6L600.2,57h-0.3l-0.6,31.6l-0.2,17.1c-0.1-0.3-0.3-0.6-0.5-0.9c-0.6-1.1-1.3-2.2-2-3.3
					c-0.7-1.1-1.5-2.1-2.3-3c-0.9-0.9-1.7-1.9-2.5-2.8c-1.6-1.9-3.3-3.8-5-5.7c-1.7-1.9-3.4-3.8-5.1-5.6l-0.2,0.2
					c1.3,2.2,2.8,4.3,4.1,6.4c1.4,2.1,2.8,4.2,4.3,6.3c0.7,1,1.4,2.1,2.1,3.2c0.7,1.1,1.5,2.1,2.3,3c0.8,0.9,1.7,1.9,2.7,2.7
					c0.7,0.6,1.4,1.2,2.1,1.8l-0.2,12.3c-0.1,8.9-0.4,17.8-0.4,26.7c-0.3-0.5-0.6-1-0.9-1.5c-0.9-1.6-1.9-3.1-2.9-4.6
					c-2-3-4.5-5.6-6.8-8.4c-2.3-2.8-4.6-5.5-6.9-8.3c-2.4-2.7-4.7-5.5-7.1-8.2l-0.2,0.2c2,3,4.1,6,6.1,8.9c2.1,3,4.1,5.9,6.2,8.8
					c2.1,2.9,4,6,6.3,8.7c1.2,1.4,2.4,2.7,3.7,4c0.8,0.9,1.7,1.7,2.6,2.5c0,0.8,0,1.7,0,2.5c0.1,5.3,0.2,10.5,0.5,15.8
					c0.2,5.3,0.5,10.5,0.9,15.8h0.3c0.4-5.3,0.7-10.5,0.9-15.8c0.1-1.5,0.1-3,0.2-4.6c1-0.9,2-1.8,2.9-2.8c1.3-1.3,2.5-2.6,3.7-4
					c2.4-2.7,4.3-5.8,6.3-8.7c2.1-2.9,4.2-5.9,6.2-8.8c2-3,4.1-5.9,6.1-8.9L626.3,129.5z"/>
			</g>
		</g>
		<g>
			<g>
				<path class="st3" d="M724.6,172.5c-144.7,20.9-111.8,111.8-111.8,111.8S703.8,317.2,724.6,172.5z"/>
				<path class="st4" d="M669.5,264.7c-3.6,0.2-7.2,0.5-10.8,0.8c-3.6,0.3-7.2,0.6-10.8,0.9c-3.6,0.3-7.2,0.4-10.8,1.1
					c-1.8,0.3-3.5,0.7-5.3,1.1c-0.7,0.2-1.5,0.4-2.2,0.6c2.2-2.1,4.4-4.2,6.6-6.3c5.2-5,10.2-10.1,15.1-15.3c1,0.1,2,0.1,3.1,0.1
					c1.6,0,3.1,0,4.6-0.1c3.1-0.2,6.1-1,9.1-1.5c3-0.5,6.1-1.1,9.1-1.6c3-0.6,6-1.2,9.1-1.8l0-0.3c-3.1,0.2-6.1,0.4-9.2,0.6
					c-3.1,0.2-6.1,0.5-9.2,0.7c-3.1,0.3-6.2,0.3-9.2,0.9c-1.5,0.3-3,0.6-4.5,1c-0.4,0.1-0.8,0.2-1.2,0.3c1.8-1.9,3.6-3.7,5.4-5.6
					l22-22.7l21.9-22.8l-0.2-0.2l-22.8,21.9l-12.2,11.9c0.1-0.3,0.2-0.6,0.3-0.9c0.4-1.2,0.7-2.5,0.9-3.7c0.3-1.2,0.4-2.5,0.5-3.8
					c0.1-1.3,0.1-2.5,0.2-3.8c0.2-2.5,0.4-5.1,0.5-7.6c0.1-2.5,0.3-5.1,0.4-7.6l-0.3,0c-0.6,2.5-1.1,5-1.6,7.5c-0.5,2.5-1,5-1.4,7.5
					c-0.2,1.2-0.5,2.5-0.8,3.7c-0.3,1.2-0.4,2.5-0.5,3.8c-0.1,1.3-0.1,2.5,0,3.8c0,0.9,0.1,1.8,0.2,2.8l-8.8,8.6
					c-6.4,6.2-12.9,12.3-19.2,18.6c0.2-0.5,0.3-1.1,0.4-1.6c0.5-1.8,0.8-3.5,1.1-5.3c0.7-3.5,0.8-7.2,1.1-10.8
					c0.3-3.6,0.7-7.2,0.9-10.8c0.3-3.6,0.6-7.2,0.8-10.8l-0.3,0c-0.7,3.5-1.3,7.1-2,10.6c-0.6,3.5-1.3,7.1-1.9,10.7
					c-0.6,3.6-1.5,7.1-1.7,10.7c-0.1,1.8-0.2,3.6-0.2,5.4c0,1.2,0,2.4,0.1,3.6c-0.6,0.6-1.2,1.2-1.8,1.8c-3.6,3.8-7.3,7.6-10.8,11.5
					c-3.6,3.9-7.1,7.8-10.5,11.8l0.2,0.2c4-3.4,8-6.9,11.8-10.5c1.1-1,2.2-2.1,3.3-3.1c1.4,0.1,2.7,0.1,4,0.1c1.8,0,3.6-0.1,5.4-0.2
					c3.6-0.2,7.1-1.1,10.7-1.7c3.6-0.6,7.1-1.2,10.7-1.9c3.5-0.7,7.1-1.3,10.6-2L669.5,264.7z"/>
			</g>
		</g>
		<g>
			<g>
				<path class="st3" d="M475.4,172.5c144.7,20.9,111.8,111.8,111.8,111.8S496.2,317.2,475.4,172.5z"/>
				<path class="st4" d="M530.5,264.7c3.6,0.2,7.2,0.5,10.8,0.8c3.6,0.3,7.2,0.6,10.8,0.9c3.6,0.3,7.2,0.4,10.8,1.1
					c1.8,0.3,3.5,0.7,5.3,1.1c0.7,0.2,1.5,0.4,2.2,0.6c-2.2-2.1-4.4-4.2-6.6-6.3c-5.2-5-10.2-10.1-15.1-15.3c-1,0.1-2,0.1-3.1,0.1
					c-1.6,0-3.1,0-4.6-0.1c-3.1-0.2-6.1-1-9.1-1.5c-3-0.5-6.1-1.1-9.1-1.6c-3-0.6-6-1.2-9.1-1.8l0-0.3c3.1,0.2,6.1,0.4,9.2,0.6
					c3.1,0.2,6.1,0.5,9.2,0.7c3.1,0.3,6.2,0.3,9.2,0.9c1.5,0.3,3,0.6,4.5,1c0.4,0.1,0.8,0.2,1.2,0.3c-1.8-1.9-3.6-3.7-5.4-5.6
					l-22-22.7l-21.9-22.8l0.2-0.2l22.8,21.9l12.2,11.9c-0.1-0.3-0.2-0.6-0.3-0.9c-0.4-1.2-0.7-2.5-0.9-3.7c-0.3-1.2-0.4-2.5-0.5-3.8
					c-0.1-1.3-0.1-2.5-0.2-3.8c-0.2-2.5-0.4-5.1-0.5-7.6c-0.1-2.5-0.3-5.1-0.4-7.6l0.3,0c0.6,2.5,1.1,5,1.6,7.5c0.5,2.5,1,5,1.4,7.5
					c0.2,1.2,0.5,2.5,0.8,3.7c0.3,1.2,0.4,2.5,0.5,3.8c0.1,1.3,0.1,2.5,0,3.8c0,0.9-0.1,1.8-0.2,2.8l8.8,8.6
					c6.4,6.2,12.9,12.3,19.2,18.6c-0.2-0.5-0.3-1.1-0.4-1.6c-0.5-1.8-0.8-3.5-1.1-5.3c-0.7-3.5-0.8-7.2-1.1-10.8
					c-0.3-3.6-0.7-7.2-0.9-10.8c-0.3-3.6-0.6-7.2-0.8-10.8l0.3,0c0.7,3.5,1.3,7.1,2,10.6c0.6,3.5,1.3,7.1,1.9,10.7
					c0.6,3.6,1.5,7.1,1.7,10.7c0.1,1.8,0.2,3.6,0.2,5.4c0,1.2,0,2.4-0.1,3.6c0.6,0.6,1.2,1.2,1.8,1.8c3.6,3.8,7.3,7.6,10.8,11.5
					c3.6,3.9,7.1,7.8,10.5,11.8l-0.2,0.2c-4-3.4-8-6.9-11.8-10.5c-1.1-1-2.2-2.1-3.3-3.1c-1.4,0.1-2.7,0.1-4,0.1
					c-1.8,0-3.6-0.1-5.4-0.2c-3.6-0.2-7.1-1.1-10.7-1.7c-3.6-0.6-7.1-1.2-10.7-1.9c-3.5-0.7-7.1-1.3-10.6-2L530.5,264.7z"/>
			</g>
		</g>
		<polygon class="st5" points="602.3,286.9 601.5,240.8 601,217.8 600.5,194.8 599.7,194.8 599.2,217.8 598.7,240.8 597.9,286.9 
			596.6,327.3 603.6,327.3 		"/>
	</g>
	<g>
		<circle class="st6" cx="600" cy="565.5" r="243.9"/>
		<g>
			<path class="st7" d="M785.7,609.6c-11.9-1.2-24.2-1.8-35.6,1.7c-6.3,1.9-13,6.5-12.8,13c0.1,3.8,2.6,7.2,2.8,11
				c0.4,5.6-4.4,10.5-9.7,12.3c-5.3,1.8-11.1,1.3-16.7,1.1c-19.1-0.7-38.4,2.1-56.5,8.2c-7.6,2.6-16.3,7.5-16.3,15.6
				c0,4.5,3.1,8.6,6.9,11c3.9,2.3,8.4,3.2,12.9,3.7c4.6,0.5,9.4,0.7,13.7,2.4c4.3,1.8,8.2,5.5,8.4,10.2c0.3,6.5-6.4,11.2-12.8,12.3
				c-6.4,1-13-0.3-19.4,0.7c-6.4,1-13.2,5.5-13.1,12c0.1,7.4,8.6,11.6,16,12c10.7,0.6,21-3.1,31.7-4.2c10.6-1.1,23,1.6,28.2,10.9
				c2.3,4.2,3.4,9.7,7.9,11.6c5.1,2.1,10.3-2.5,15.2-5.1c7.7-4,16.6-3.1,25.4-2c41.3-36.7,70.1-87.3,79-144.4
				c-5.8,3.8-12.6,6.1-19.5,7.1C809.6,612.4,797.6,610.8,785.7,609.6z"/>
		</g>
		<g>
			<path class="st7" d="M569,792.5c-4.5-7.9-18.6-7-21.5-15.6c-2.2-6.4,3.9-12.6,9.5-16.4c5.7-3.8,12.3-8.5,12-15.3
				c-0.3-7.2-8.6-11.4-15.8-12c-8.7-0.7-17.4,1.6-25.9,3.5c-8.5,1.9-17.5,3.4-26,1.2c-8.5-2.2-16.3-9-17.1-17.7
				c-0.5-6.2,2.5-12.3,2.4-18.6c-0.2-10.1-9-18.3-18.6-21.5s-19.9-2.5-30-2.2c-10.1,0.3-20.7,0-29.5-4.9
				c-8.8-4.9-15.2-15.7-11.8-25.2c1.8-5.2,6.1-9.1,9.3-13.5c3.2-4.5,5.3-10.7,2.4-15.4c-4.2-6.8-16.5-6.2-18.9-13.9
				c-1.2-3.9,0.9-8.1,3.8-10.9c5.3-5.2,13.3-7.9,14.4-16.1c0.7-5.1-1.2-8.3-5.9-10c-5.1-1.8-11.2-1.2-16.6-1.9
				c-1.2-0.2-2.5-0.4-3.7-0.6h-25.5c0,123.2,91.4,225.1,210.1,241.6C569.7,802.6,571.7,797.2,569,792.5z"/>
		</g>
		<path class="st7" d="M637.2,451.3c-4.5,2.9-8.9,6.3-11.8,10.7c-3,4.5-4.4,10.2-2.8,15.3c2,6.6,8.7,12.3,6.9,18.9
			c-1.3,4.8-6.6,7.2-11.2,9c-10,3.9-19.9,7.7-29.9,11.6c-4.6,1.8-9.4,3.7-13.2,6.8c-3.9,3.2-6.8,7.9-6.4,12.9
			c0.5,7.7,8.4,13.1,16,14.1c7.7,1.1,15.4-0.9,23.1-1.3c4.6-0.2,9.4,0.1,13.4,2.4c4,2.3,6.9,6.9,6.1,11.5c-0.9,4.4-4.8,7.4-8,10.5
			c-3.2,3.2-5.9,8-3.7,11.9c2.4,4.4,8.8,4.1,13.6,2.9c13.4-3.4,27.6-9.2,40.5-4.3c9.7,3.6,16.4,12.5,25.3,17.6
			c10.5,6,23.5,6.3,35.2,3.5c11.7-2.8,22.6-8.6,33.2-14.4c8.3-4.5,16.8-9.3,22.3-16.9s7.2-18.9,1.3-26.2c-5-6.2-13.7-7.9-21.1-10.8
			c-7.5-2.9-15.2-9.6-13.5-17.5c1.4-6.4,8.3-9.7,13.9-13.1c4.6-2.8,8.9-6.2,11.5-10.9s3-10.8,0-15.3c-3.8-5.7-11.6-7-18.5-7.5
			c-6.9-0.5-14.6-1.1-19.1-6.3c-3.3-3.7-4.5-8.7-8-12.3c-3.3-3.3-8-5.5-12.1-7.7c-6.3-3.5-12.5-5.4-19.6-6.6
			C678.7,436.2,656.2,439.3,637.2,451.3z"/>
		<g>
			<path class="st8" d="M731.4,650.6c0.3,0.4-0.1-0.2-0.2-0.3c-0.4-0.4-0.9-0.7-1.4-0.8c0,0-0.1,0-0.1,0c-0.1-0.2-0.3-0.3-0.5-0.4
				c-0.4-0.1-0.8-0.5-1.1-0.7c-0.3-0.2-0.7-0.3-1-0.6c-0.9-0.8-2.3-0.7-2.9,0.4c-0.9,1.6-0.2,3.5,1.2,4.6c0.6,0.5,1.3,0.8,2,1.1
				c0.4,0.2,0.8,0.3,1.1,0.7c1,1.1,2.7,0.6,3.4-0.4c0.6-0.9,0.6-2.1,0.1-3C731.7,651,731.5,650.8,731.4,650.6z"/>
			<path class="st8" d="M742.8,656.6c-0.4-1.2-2.1-1.7-3-0.8c-0.1,0-0.2,0.1-0.3,0.1c-1.3,0.6-1.4,2.4-0.5,3.4
				c0.2,0.5,0.4,0.9,0.8,1.2c1.2,1.1,3.1,1.3,4.4,0.3c0.6-0.5,1.1-1.1,1.1-1.9c0-0.6-0.2-1.2-0.7-1.6
				C744.1,656.7,743.4,656.5,742.8,656.6z"/>
			<path class="st8" d="M751.2,669.1c-0.3-0.3-0.5-0.7-0.7-1.3c-0.1-0.6-0.8-1-1.4-0.9c-0.6,0.1-1,0.6-1.1,1.2c0,0.5,0,1,0.1,1.6
				c0,0.2,0.1,0.5,0.1,0.7c0,0.1,0.1,0.7,0.1,0.3c0,1.5,1.8,2.3,2.9,1.4C752.5,671.3,752.3,669.7,751.2,669.1z"/>
			<path class="st8" d="M709.4,642.4c-0.4,0.1-0.8,0.4-0.9,0.9c-0.2,0.7,0.2,1.5,0.9,1.7c0.6,0.2,1.3,0,1.7-0.5
				c0.4-0.6,0.4-1.3,0-1.8C710.7,642.1,709.8,642,709.4,642.4z"/>
			<path class="st8" d="M664.5,455.7c1.4,0.3,2.8,0.5,4.1,1c0.4,0.2,0.8,0.5,1.4,0.7c0.8,0.6,1.4,1.5,1.5,3c0.3,2.2-0.2,4,1.8,5.5
				c2.6,2,8.4,1.7,9-2.1c0.2-1.3-0.1-2.5-0.7-3.6c0.1-0.2,0.1-0.4,0.1-0.7c-0.6-5.1-6.1-5.3-9.4-8.2c-1.4-1.2-1.7-2.2-2.3-3.9
				c-0.3-0.9-0.4-1.7-1.2-2.5c-1.4-1.5-4-2.1-6-2.2c-3.4-0.1-9.2,1.8-9.6,5.8C652.7,453.2,661.2,455,664.5,455.7z"/>
			<path class="st8" d="M645.6,442.2c0.6,0,1.1-0.3,1.6-0.6c0.3,0.1,0.7,0.1,1,0.1c0.7-0.1,1.3-0.5,1.6-1.1c0.4-0.8,0.3-1.5,0-2.3
				c-0.5-1.2-2-2.1-3.3-2c-1.4,0-2.7,1-3,2.4c-0.1,0.6-0.1,1.3,0.1,1.8C643.9,441.3,644.7,442.2,645.6,442.2z"/>
			<path class="st8" d="M648.1,428.4c0.2,0,0.4-0.1,0.6-0.1c0.1,0,0.2,0,0.3,0c1.2,0,2-1.2,1.8-2.3c-0.2-1.1-1.4-2-2.6-2
				c-0.8,0-1.7,0.7-1.6,1.6c0.1,0.4,0,0.9,0.1,1.3C646.6,427.7,647.3,428.4,648.1,428.4z"/>
			<path class="st8" d="M653.3,467.5c0.4-0.3,0.7-0.5,1-1c0.4-0.7,0.2-1.6-0.4-2c-0.7-0.5-1.5-0.4-2.1,0.1c-0.3,0.2-0.4,0.5-0.6,0.8
				c-0.3,0.6-0.3,1.3,0.2,1.8C651.9,467.7,652.7,467.8,653.3,467.5z"/>
			<path class="st8" d="M664.6,472c2.2,0,2.2-3.4,0-3.4C662.4,468.5,662.4,472,664.6,472z"/>
			<path class="st8" d="M652.1,556.3c-2.5,0-2.5,3.8,0,3.8C654.6,560.1,654.6,556.3,652.1,556.3z"/>
			<path class="st8" d="M649.7,567.9c0.3-0.3,0.5-0.7,0.5-1.2c0-0.4-0.2-0.9-0.5-1.2c-0.4-0.4-1-0.5-1.6-0.4c-0.1,0-0.3,0.1-0.4,0.1
				c-0.6,0.1-1.2,0.9-1.2,1.5c0,0.7,0.5,1.4,1.2,1.5c0.1,0,0.3,0.1,0.4,0.1C648.7,568.4,649.3,568.4,649.7,567.9z"/>
			<path class="st8" d="M649.4,574.8c-1.7,0-1.7,2.6,0,2.6C651.1,577.4,651.1,574.8,649.4,574.8z"/>
			<path class="st8" d="M843,544.5c-4.2-49.4-23.2-94.7-52.5-131.3c-4.2-1.4-8.4-2.7-12.7-4.1c-2.9-0.9-5.9-1.9-8.9-1.7
				c-3.9-2.7-8.4-4.7-13-5.9c-4.8-1.2-9.1-1.2-12.9-4.8c-3.3-3-6.2-5.8-10.4-7.5c-3.8-1.6-7.9-2.3-12-2.8c-4.2-0.5-9-1.5-13.1,0.2
				c-1.9,0.8-3.3,2-4.9,3.1c-1.9,1.2-3.7,1.4-5.8,2c-3.2,0.9-5.5,3.1-6.9,6.1c-1.3,2.6-1.9,5.4-3,8.1c-1.8,4.5-5.1,5.9-9.7,6.7
				c-8,1.5-15.2,4.7-19.1,12.3c-1.3,2.5-3.4,6.9-1.2,9.4c1.1,1.2,2.6,1.2,4.1,1.1c2.9-0.2,5.7-0.8,8.6-0.8c1.2,0,2.5,0,3.7,0.1
				c2.2,0.2,1.9,0.9,2.7,2.6c0.6,1.3,1.6,2.3,2.9,3c2.6,1.5,7.5,0.9,9,3.8c0.9,1.8,0.7,3.7,2.3,5.3c1.3,1.3,3.1,2.2,4.9,2.6
				c2.2,0.5,4.5,0.4,6.8,0.4c1.3,0,2.8,0,4.1,0.4c1.9,0.6,4.5,3.1,2.8,5.4c-0.8,0.4-1.6,0.9-2.4,1.6c-0.1,0.1-0.1,0.1-0.2,0.2
				c-3.7,1.2-7.1,3.6-10.3,5.7c-3.5,2.3-6.9,4.7-10.1,7.4c-3.6,3.1-6.5,6.8-9.9,10.1c-3.4,3.3-7.3,4.9-12,5.2
				c-4.3,0.3-8.6-0.1-12.8,0.6c-6.6,1.1-13,5.3-12.8,12.6c0.1,2.5,1,5,2.8,6.8c1,1,2.3,1.5,3.6,1.8c0.5,0.1,2.1,0.2,2.4,0.6
				c1.1,1.1-0.5,4-0.9,5.2c-0.8,2.5-1.6,5-2.4,7.5c-0.8,2.4-2,5.1-2.3,7.7c-0.3,2.9,1.7,4.4,4.3,5c2.2,0.5,3.9,0.1,4.8,2.5
				c0.6,1.6,0.6,2.9,1.9,4.1c1.8,1.7,4.3,1.9,6.6,1.7c-0.7,2.6-0.8,5.4,0.9,7.3c0,1.1,0.3,2.3,0.8,3.6c1.3,3.2,4.7,6.3,3.2,9.4
				c-0.9,1.8-3,2.6-4.8,3.5c-1.8,0.9-3.6,2.8-3,4.7c0.9,2.7,5.2,2,7.1,4c2,2.1,0.5,5.6-1.4,7.8c-1.9,2.2-4.2,4.8-3.5,7.6
				c0.6,2.4,3.3,3.8,5.9,3.9c2.5,0.1,5-0.6,7.5-0.7c8.5-0.3,16.3,7.7,15.9,16.2c-0.1,2.7-0.8,6.1,1.4,7.7c1.6,1.2,3.9,0.7,5.6-0.3
				c1.7-1,3.2-2.4,5.1-3.1c2.9-1,6.3,0,8.2,2.4c1.8,2.4,1.9,6.1,0.1,8.5c0.6,0.4,1.2,0.9,1.8,1.3c-0.4,1.2-0.1,2.6,0.8,3.7
				c1,1.1,2.4,1.4,3.6,2.2c1.9,1.2,2.3,2.8,3,4.8c1.2,3.2,3.1,4.6,6.1,6c3.9,1.8,7.9,3.8,11.9,5.4c2.9,1.2,5.8,1.9,8.8,1
				c3.4,1.4,6.8,2.9,10.2,4.3c2.3,1,5.6,1.6,6.8-0.6c0.5,1,0.9,2,1.4,3c5.2,0.1,10.5,0.2,15.7,0.3c4.3,0.1,9,0.1,12.6-2.2
				c3.7-2.3,5.6-7.9,2.8-11.1c-1-1.2-2.6-1.9-3.3-3.3c-1.2-2.3,0.4-4.9,1.9-7c0.2-0.3,0.5-0.7,0.7-1c2.2,0.3,4.3-0.3,6.1-1.5
				c0.1,0.6,0.9,1.1,1.6,0.8c1.1-0.6,1.7-1.4,2-2.5c1.8,0.3,3.7,0,5.2-1.5c1.3-1.1,1.8-2.8,1.7-4.5c-0.2-2.1-1.4-2.9,0.4-4.4
				c1.1-0.9,2-2,2.4-3.4c0.2-0.8,0-1.7,0.4-2.6c0.3-0.6,0.8-1.1,1.3-1.7c1.9-1.5,3.9-2.7,5.2-5c0.5-0.9,0.4-2-0.2-2.7
				c0.9-1.1,1.3-2.3,0.3-3.8c-1.3-2-3.8-1.7-5.5-0.6c-0.4,0.2-0.6,0.5-0.8,0.8c-2.7-0.4-5.1-1.4-6.4-3.7c-2.4-4.5,1.6-9.5,5.1-13.3
				c2.3-2.5,4.6-5.3,5.4-8.7c0.6-2.5,0.1-5.5-1.4-7.4c2.9-2.5,4.8-5.9,4.7-10c0-0.9-0.3-1.8-0.5-2.7c-0.3-0.8-1.4-2.1-1.3-2.9
				c0-0.7,0.4-1.4,0.9-2c3.8,0,7.6,0.1,11.4,0.1c2.1,0,4.4,0,6.3-0.9c1.9-1,3.4-3.2,2.8-5.2C841.1,544.8,842.1,544.7,843,544.5z"/>
		</g>
		<g>
			<path class="st7" d="M375.9,579c6.7-6.8,12.7-15.6,22.1-17.2c5.1-0.8,10.4,0.7,15.6,0.3c5.2-0.4,10.9-4.4,10.1-9.5
				c-0.6-3.6-4-5.9-5.9-8.9c-4.4-6.7-1-16.2,5.3-21.2c6.2-5,14.5-6.5,22.3-8c18.5-3.3,37-6.7,55.5-10c7-1.3,14.2-2.6,20.1-6.6
				s10.1-11.3,8.2-18.2c-1.9-6.7-8.8-10.9-11.2-17.4c-2.8-7.4,1.2-16,7.4-21c6.2-5,14.1-7.2,21.7-9.2c21.3-5.7,42.5-11.4,63.8-17.2
				c6.5-1.8,13.3-3.6,18.6-7.8s8.9-11.3,7-17.8c-2.6-8.5-12.6-11.6-21-14.5c-8.4-2.8-18-8.8-17-17.6c0.8-7.8,9.9-12.7,11.4-20.4
				c1.2-6-2.3-11.4-7.3-15.3c-0.8,0-1.7,0-2.5,0c-134.7,0-243.9,109.2-243.9,243.9c0,7.2,0.3,14.4,0.9,21.4
				C363.4,587.9,371,583.9,375.9,579z"/>
		</g>
		<g>
			<path class="st8" d="M640.7,654.7c-2.1-0.7-4.6-2.3-4-4.4c-2,1.5-5,0.1-6.8-1.7c-1.8-1.8-3.3-4.1-5.7-4.9
				c-2.2-0.7-3.4,0.1-5.2,1.6c-1.3,0.7-3-0.4-3.3-1.9c-0.3-1.4,0.4-2.9,1.2-4.1c0.9-1.2,1.9-2.3,2.5-3.6c1.6-3.9-1.8-8.6-6-9.2
				c-0.1-0.9-0.2-1.7-0.3-2.6c-2.7,1-5.9,0.5-8.2-1.3c-1-0.8-1.9-1.8-2.8-2.7c-1.7-1.7-3.8-3-5.8-4.2c-1.8-1.1-3.7-2.3-5.5-3.4
				c-4.8-2.9-9.6-5.9-14.8-7.8c0.8,1.3-1.1,2.8-2.6,2.6c-1.5-0.2-2.8-1.3-4.2-1.7c-2.3-0.6-4.6,0.4-6.8,1.5c-0.3-0.5-0.6-1-1.1-1.4
				c-1.5-1.1-3.7-1-5.4-0.1c-3.5,1.8-4.3,4.8-3.6,7.2c-1.8,1.1-3.8,2.4-5,2.1c-1.1-0.2-2.6-2.9-4.1-3.4c-1.8-0.7-4-0.7-5.7,0.3
				c-4.3-0.7-8.5-1.5-12.8-2.2c-1.6-2.1-0.9-5.2,0.1-7.6c1-2.5,2.4-5,1.9-7.6c-0.5-2.7-2.8-4.6-5-6.3c-2.1,0.2-4.3,0.4-6.4,0.6
				c0-1-0.1-2-0.1-3c-0.8,0.6-2.1,0.1-2.6-0.9c-0.5-0.9-0.4-2-0.3-3.1c0.3-2.7,0.5-5.3,0.8-8c0.1-1.3,0.2-2.7-0.3-3.9
				c-0.6-1.2-2.1-2-3.3-1.3c-0.1-0.7-0.1-1.5-0.2-2.2c-1.7-1.1-4-0.5-5.5,0.8c-1.5,1.3-2.4,3.1-3.3,4.9c-0.9,2-1.9,4-2.8,6
				c-2.1-0.1-4.1-0.1-6.2-0.2c0.9-2.1-1-4.7-3.3-4.6c-3.3-2.9-3.9-5.3-6.8-8.7c-1.4-1.6-2.7-3.3-3-5.4c-0.4-2.8,1.2-5.4,2.7-7.8
				c1.5-2.3,3.2-4.8,5.7-5.9c2.9-1.2,6.2-0.1,9.3,0.1c3.1,0.2,7-1.2,7.3-4.3c0.4,2.3,3.8,2.6,5.8,1.4c2-1.2,3.7-3.2,6-3.5
				c2-0.3,4,0.8,5.5,2.3c1.5,1.4,2.5,3.2,3.9,4.7c0.5,0.6,1,1.1,1.6,1.6c0,0.2,0.1,0.4,0.2,0.6c1.2,1.9,0.6,4.1,1.2,6.2
				c0.5,1.8,1.7,3.2,3.6,3.6c1.6,0.4,3.3-0.2,4.2-1.6c0.4-0.6,0.4-1.7,0.6-2.7c0.9-0.8,1.8-1.6,2.6-2.5c2.1-0.9,4.3-1.9,6.4-2.8
				c1.8-3.8,4.9-6.3,6.7-10.1c0.6-1.2,1.1-2.4,1.7-3.5c0.5-1,0.9-1.9,1.4-2.9c1-2,1.9-4.1,2.9-6.1c1.7-3.6,3.4-7.3,4.8-11
				c2.8-2.3,5-5.3,5.7-9.1c0.7-3.8-0.5-7.6,0.1-11.4c0.6-4,3.2-7.4,3-11.6c-0.2-3.9-2.4-7.1-3.1-10.9c-0.8-4,0.8-8-0.4-12
				c-1.1-3.6-3.7-5.8-7.5-6.4c-2.1-0.3-3-0.2-3.8-2.2c-0.6-1.4-0.8-2.9-1.2-4.3c-0.8-2.8-2-5.5-4.5-7.1c-1.8-1.1-4-1.3-6.1-1.2
				c-1.5,0-5,0.8-5.4-1.4c-0.5-2.5-4.3-2.9-5.5-0.7c-3,6-10.1,4.1-14.3,0.5c-2.1-1.7-4.8-0.5-5.1,2.1c-0.3,2.7-0.6,6.1-2.8,8
				c-2.3,1.9-4.2,0.2-5.5-1.8c-2.4-3.9-3-8.8-4.8-12.9c-1.9-4.3-5.4-5.7-9.8-6c-5.7-0.4-10.5-1.7-15.2-5.1c-1.3-0.9-3.4,0-3.7,1.5
				c0.2-0.9-1.6-2.9-2.2-3.6c-0.9-1-1.9-1.9-3.2-2.3c-3-0.9-6.1,0.8-8,3c-2.2,2.5-2.7,6.4-5.2,8.6c-2.4,2.1-6.2,2.3-9.2,2.6
				c-2.9,0.4-5.8,0.7-8.4,2c-3.1,1.4-5.5,3.8-8,6.1c-2.8,2.4-5.4,3.5-8.8,4.7c-2.9,1-5,2.7-5.8,5.7c-0.9,3.3,0.5,7-1.8,9.8
				c-2.9,3.5-6.5,6.5-9.7,9.7c-3,3-6.2,5.9-9,9.1c-1.7,2-2.8,4.4-1.8,7c0.7,1.8,2.3,3,3.8,4.1c1.8,1.3,5.1,2.4,4,5
				c-1,2.5-3.1,4.2-2.6,7.2c0.5,2.8,3,4.4,5.7,4.8c1.7,0.3,3.4-0.3,5.1-0.2c2.4,0.2,3,1.8,4.6,3.3c1.2,1.1,2.5,1.7,4.2,2
				c2.1,0.3,3.8-0.1,4.9,2.2c1.5,3,1.5,6.2,3.6,9c0.2,0.2,0.4,0.5,0.6,0.7c-0.2,5.3-0.1,10.8,2.2,15.5c0.9,1.7,2.1,3.3,3.7,4.2
				c1.7,0.9,3.9,1,5.4-0.1c-1.4,1.6-0.9,4.3,0.6,5.9c1.4,1.6,3.5,2.5,5.4,3.5c7.1,4,12.4,11.2,13.9,19.2c0.5,2.4,0.6,5,1.8,7.1
				c1.2,2.2,3.9,3.8,6.1,2.8c0.3,0.5,0.5,1,0.8,1.4c1.4,2.7,3.4,5.2,6.2,6.5c2.7,1.3,5.8,1.8,8.8,2.2c4,0.6,8,1.2,12,1.7
				c2.9,0.4,5.9,0.9,8.6,2c3.3,1.4,6.1,3.7,8.8,5.9c1.7,1.4,3.5,2.9,4.3,5c0.7,1.8,0.6,4,1.8,5.6c1.1,1.5,3,2.1,4.8,2.6
				c6.5,1.6,13.2,2.4,19.9,2.2c0.8,1.8,1.7,3.7,2.5,5.5c3,6.6-1.8,14-7.4,18.6c-1.9,1.6-4.2,2.9-5.4,5.1c-1.2,2.1-1.3,4.6-1.2,7
				s0.3,4.8-0.5,7.1c-0.8,2.3-2.8,4.3-5.2,4.2c0.6,2.6,1.2,5.2,1.8,7.8c-1,1.1,0.4,3.2,1.6,4.2c1.2,0.9,2.8,1.5,3.7,2.7
				c1.4,1.7,1,4.2,0.9,6.4c-0.1,2.2,0.4,4.9,2.5,5.7c2.1,0.8,5-0.9,6.5,0.8c0.8,0.9,0.8,2.2,1.4,3.3c0.6,1.1,2,1.6,3.2,1.3
				s2.1-1.5,2.1-2.7c1.7,1.4,4,2.1,6.1,1.8c1.2-0.2,1.8,0.4,2.4,1.4c0.6,1,0.7,2.2,0.9,3.4c0.2,2.4,0.5,4.7,0.7,7.1
				c0.1,1.2,0.2,2.4-0.3,3.5c-1.5,2.9-7,2.2-7.8,5.4c-0.6,2.4,2.1,4.3,2.9,6.6c1.1,3.3-1.8,6.5-4.5,8.7c-2.7,2.2-5.7,5.3-4.8,8.6
				c0.5,1.7,2.1,2.7,3.8,2.9s3.4-0.2,5.1-0.7c3.7-1.1,7.3-2.3,11-3.4c2.7-0.8,5.8-2.1,6.2-4.9c2.3,0,3.9-2.1,4.9-4.1
				c1-2,1.7-4.3,3.4-5.7c3.8-3,9.5-0.1,14.1-1.7c3.2-1.1,5.2-4.2,7.6-6.5c2.4-2.4,6.4-4.1,9-2c1.8-1.6,3.6-3.2,5.3-4.8
				c-1.6-2.2,1.1-5.5,3.1-7.3c2-1.8,4.5-3.2,5.7-5.6c0.9-1.9,0.8-4.1,1.4-6.1c0.9-3.2,3.5-5.7,5.9-8.1c4.6-4.4,9.3-8.9,13.9-13.3
				c-1.3,0.4-2.5-1.3-2.2-2.6c0.3-1.4,1.4-2.3,2.4-3.3c1-1,2-2.1,1.9-3.5C645.4,656.3,642.8,655.3,640.7,654.7z"/>
			<path class="st8" d="M549.6,578.5c1.5-0.2,3-1.5,2.9-3c0-2.1-2.4-3.2-4.5-3.5c-2.1-0.3-4.4-0.2-5.9-1.6c-0.4-1.4-1.8-2.2-3.1-2.9
				c-3.4-1.8-9.4-6.7-13.4-6.6c-1.9,0.1-4.5,1.9-4.4,4.1c0.2,1.9,3,3.5,4.2,1.4c-0.3,1.9-0.5,3.7-0.8,5.6c5.5-2.8,12.5-1.9,17.2,2
				c1.2,1,2.2,2.2,3.4,3.1C546.6,578,548.1,578.7,549.6,578.5z"/>
			<path class="st8" d="M555.2,581.2c1.9,1.7,4.8,1.8,7.3,2c3,0.2,6,0.4,9,0.6c1.1,0.1,2.6-0.1,2.8-1.2c0.1-0.8-0.5-1.4-1.1-1.9
				C569,577.3,558.3,575.2,555.2,581.2z"/>
			<path class="st8" d="M560,568.4C560,568.4,560,568.4,560,568.4C560,568.4,560,568.4,560,568.4L560,568.4z"/>
			<path class="st8" d="M561.6,569.3c-0.5-0.3-1-0.6-1.6-0.9L561.6,569.3c-0.6-0.2-1.2-0.4-1.6-0.9c-0.4-0.2-0.8-0.3-1.2-0.3
				c-1.1,0-2.2,0.7-2.2,1.8c0,1.3,1.6,1.9,2.8,2.1c1.3,0.3,2.6,0.6,3.9,0.9c0.9,0.2,1.9,0.3,2.5-0.4c0.6-0.7,0.2-1.9-0.6-2.4
				c-0.8-0.5-1.8-0.6-2.7-0.7C562.2,569.4,561.9,569.4,561.6,569.3z"/>
			<path class="st8" d="M541,581.3c-1,0.3-1.7,1.4-1.6,2.4c0.8,1,1.7,2,2.8,2.5c1.2,0.5,2.7,0.3,3.3-0.8c0.6-1,0.1-2.4-0.8-3.1
				c-0.9-0.8-2.1-1-3.3-1.2l0.3,0.2C541.6,581.2,541.3,581.2,541,581.3z"/>
			<path class="st8" d="M511.3,645.8c-0.9-0.7-2.2-0.8-3.3-0.9l0.8-0.1c-1.4-0.6-3.2,0.1-3.8,1.5c-0.6,1.4,0.2,3.2,1.6,3.7
				c0.9,0.3,1.9,0.2,2.9,0c1-0.2,2.1-0.4,2.6-1.3C512.8,647.8,512.2,646.5,511.3,645.8z"/>
			<path class="st8" d="M497.1,645c-0.6-0.2-1.3-0.1-1.7,0.4c-0.6,0.8-0.4,2,0.5,2.6c0.8,0.6,2,0.4,2.7-0.3c0.7-0.7,1-1.7,0.9-2.7
				C498.7,645,497.9,645,497.1,645z"/>
			<path class="st8" d="M501.9,638.6c-1.2-0.4-2.9-0.5-3.4,0.7c-0.4,1,0.7,2.2,1.8,2.3c1.1,0.1,2.2-0.6,3.1-1.2l-0.9,1
				c0.4,0.5,1.3,0.3,1.6-0.2c0.3-0.6,0-1.3-0.5-1.7C503.1,639,502.5,638.7,501.9,638.6z"/>
			<path class="st8" d="M593.8,607.3c-0.2,0-0.4,0-0.6,0l0.3,0.1c-0.2,0.1-0.3,0.2-0.4,0.4c-0.5,0.8-0.1,1.8,0.6,2.4
				c0.7,0.6,1.6,0.8,2.4,1c0.9,0.2,1.7,0.5,2.3,1.2c0.1-2.2-1.5-4.2-3.6-4.9C594.6,607.3,594.2,607.3,593.8,607.3z"/>
			<path class="st8" d="M591.2,601.6L591.2,601.6c1.1-0.3,2.3-0.6,3.5-0.9c-0.6-1.3-1.7-2.4-3.1-2.5c-1.4,0-2.7,1.6-1.9,2.8
				C590,601.5,590.6,601.6,591.2,601.6z"/>
			<path class="st8" d="M549.3,560c0.7,0,1.3-0.6,1.2-1.2c0-0.7-0.5-1.2-1.2-1.2c-0.7,0-1.3,0.6-1.2,1.2
				C548.1,559.5,548.6,560,549.3,560z"/>
			<path class="st8" d="M552.8,565c-0.3-0.8-0.8-1.2-1.6-1.3c-0.7-0.1-1.3,0.5-1.5,1.2c-0.1,0.2-0.1,0.5,0,0.7
				c0,0.2,0.1,0.4,0.2,0.5c0,0,0,0,0.1,0.1c0,0,0,0,0,0c0,0,0.1,0.1,0.1,0.1c0.4,0.5,1.1,0.7,1.7,0.5
				C552.5,566.7,553.1,565.9,552.8,565z"/>
			<path class="st8" d="M544.6,565.8c0.4-0.1,0.7-0.4,0.8-0.7c0.6-0.5,0.6-1.5,0.1-2.1c-0.3-0.3-0.6-0.4-1-0.4
				c-0.5,0-0.9,0.3-1.2,0.7c-0.4,0.6-0.4,1.3-0.1,1.9C543.4,565.7,544.2,566,544.6,565.8z"/>
			<path class="st8" d="M583.1,585.5c0.1-0.1,0.2-0.1,0.3-0.2c0.6-0.3,0.7-1.2,0.2-1.7c-0.5-0.5-1.4-0.4-1.7,0.2
				c-0.1,0.1-0.1,0.2-0.2,0.3C581.4,585,582.3,585.9,583.1,585.5z"/>
			<path class="st8" d="M579.9,591.1c1.1,0,1.1-1.7,0-1.7C578.8,589.4,578.8,591.1,579.9,591.1z"/>
			<path class="st8" d="M573.2,588.5c1,0,1-1.5,0-1.5C572.2,586.9,572.2,588.5,573.2,588.5z"/>
			<path class="st8" d="M586.5,589.2c1.5,0,1.5-2.4,0-2.4C585,586.8,585,589.2,586.5,589.2z"/>
			<path class="st8" d="M593.5,589.6c1.7,0,1.7-2.6,0-2.6C591.8,587,591.8,589.6,593.5,589.6z"/>
		</g>
		<g class="st9">
			<path class="st10" d="M756,378c35.2,42.3,56.4,96.7,56.4,156c0,134.7-109.2,243.9-243.9,243.9c-59.3,0-113.7-21.2-156-56.4
				c44.7,53.7,112.1,87.9,187.5,87.9c134.7,0,243.9-109.2,243.9-243.9C843.9,490.2,809.7,422.8,756,378z"/>
		</g>
		<g class="st11">
			<path class="st10" d="M612,333.6c64.3,0,122.8,24.9,166.4,65.5c-44.5-47.7-108-77.6-178.4-77.6c-134.7,0-243.9,109.2-243.9,243.9
				c0,70.4,29.8,133.9,77.6,178.4c-40.7-43.6-65.5-102.1-65.5-166.4C368.1,442.8,477.3,333.6,612,333.6z"/>
		</g>
		<g class="st12">
			<path class="st6" d="M718,352c19.4,35,30.4,75.2,30.4,118c0,134.7-109.2,243.9-243.9,243.9c-42.8,0-83-11-118-30.4
				c41.6,75.1,121.6,126,213.5,126c134.7,0,243.9-109.2,243.9-243.9C843.9,473.6,793.1,393.6,718,352z"/>
		</g>
	</g>
	<g>
		<path class="st13" d="M683.4,613.7c-0.2-0.9-0.5-1.8-1-2.8c-0.5-1-2.1-3.8-4.1-7.5L683.4,613.7z"/>
		<linearGradient id="SVGID_3_" gradientUnits="userSpaceOnUse" x1="590.5291" y1="422.1672" x2="689.8793" y2="521.5175">
			<stop  offset="0" style="stop-color:#FFFFFF"/>
			<stop  offset="1" style="stop-color:#FFFFFF"/>
		</linearGradient>
		<path class="st14" d="M605.2,513.8l19.6,5.7c7,2,18.3,5.3,25.3,7.3l19.6,5.7c7,2,14-2.1,15.6-9.1l4.5-19.8
			c1.6-7,4.2-18.6,5.8-25.6l4.5-19.8c1.6-7-3-9.4-10.1-5.2l-12.3,7.2c-4.5-7.6-9-15.3-10.7-18c-4-6.3-11.6-11.2-26.5-11.1
			c-11.1,0.1-40.5,0.2-59.2,0.3l24.7,43.2c0.6,0.6,1.1,1.2,1.5,2.2c1.2,2.4,5.7,10.5,10.1,18.6l-12,7.1
			C598.4,506.7,598.3,511.8,605.2,513.8z"/>
		<linearGradient id="SVGID_4_" gradientUnits="userSpaceOnUse" x1="512.4344" y1="476.9355" x2="605.9672" y2="476.9355">
			<stop  offset="0" style="stop-color:#F8F8F8"/>
			<stop  offset="1" style="stop-color:#F9F9F9"/>
		</linearGradient>
		<path class="st15" d="M536.7,445.8c-6.3,9.6-22.4,35.2-22.4,35.2c-3.6,5.7-1.8,13.2,4.1,16.7l39.5,23.1c5.9,3.4,13.5,1.5,17.1-4.3
			c0,0,22.3-36.4,24.3-39.8c2.1-3.5,4.7-4,6.7-1.9l-24.7-43.2c-6.4,0-11.6,0.1-14.3,0.1C556.7,431.6,545,433.4,536.7,445.8z"/>
		<linearGradient id="SVGID_5_" gradientUnits="userSpaceOnUse" x1="458.2317" y1="583.4294" x2="559.8608" y2="583.4294">
			<stop  offset="0" style="stop-color:#FFFFFF"/>
			<stop  offset="1" style="stop-color:#FFFFFF"/>
		</linearGradient>
		<path class="st16" d="M466.9,607.4c4.4,8.6,16.8,30.7,25.8,46.9l28-45.6c3.3-5.6,9.4-16,14.5-24.6l14.3,7.9c7.3,4,11.8,1.6,10-5.4
			l-5-19.7c-1.8-7-4.7-18.4-6.5-25.5l-5-19.7c-1.8-7-8.9-10.9-15.8-8.7l-19.4,6.2c-6.9,2.2-18.2,5.8-25.1,8l-19.4,6.2
			c-6.9,2.2-6.6,7.3,0.7,11.3l10.6,5.8c-5.4,10.4-11.7,22.7-13.3,26.2C458.2,583.1,460,594.1,466.9,607.4z"/>
		<linearGradient id="SVGID_6_" gradientUnits="userSpaceOnUse" x1="492.6858" y1="648.8816" x2="587.7405" y2="648.8816">
			<stop  offset="0" style="stop-color:#F8F8F8"/>
			<stop  offset="1" style="stop-color:#F9F9F9"/>
		</linearGradient>
		<path class="st17" d="M520.7,608.8l-28,45.6c5,9,9,16.2,10.1,18.2c3,5.6,7.2,16.5,33.9,16.4c26.7-0.2,38.8-0.2,38.8-0.2
			c6.8,0,12.3-5.6,12.3-12.4l-0.3-45.6c0-6.8-5.6-12.3-12.4-12.2c0,0-45.4,0.3-53,0.3c-4.8,0-5.4-3.1-3.7-6.1
			C518.6,612.3,519.4,610.9,520.7,608.8z"/>
		<linearGradient id="SVGID_7_" gradientUnits="userSpaceOnUse" x1="669.1158" y1="622.2565" x2="739.2077" y2="552.1647">
			<stop  offset="0" style="stop-color:#FFFFFF"/>
			<stop  offset="1" style="stop-color:#FFFFFF"/>
		</linearGradient>
		<path class="st18" d="M683.4,613.7l23.1,46c8.1-14.9,21.8-40.7,27.4-51.8c7.5-14.9,9.6-27.9,6.2-34.7
			c-3.5-6.8-20.6-39.9-20.6-39.9c-3.1-6-10.4-8-16.2-4.5l-39.2,24c-5.8,3.5-7.8,11.3-4.5,17.2c0,0,11.9,21.3,18.5,33.3
			c2.1,3.7,3.6,6.5,4.1,7.5C682.9,611.8,683.2,612.8,683.4,613.7z"/>
		<linearGradient id="SVGID_8_" gradientUnits="userSpaceOnUse" x1="593.1619" y1="652.8628" x2="706.53" y2="652.8628">
			<stop  offset="0" style="stop-color:#F8F8F8"/>
			<stop  offset="1" style="stop-color:#F9F9F9"/>
		</linearGradient>
		<path class="st19" d="M700.8,670c0.9-1.5,3-5.3,5.7-10.3l-23.1-46c0.5,2.7-0.9,4.5-4.2,4.5c-2.3,0-13.5,0.1-23.9,0.1l-0.1-14.3
			c-0.1-8.3-4.4-11-9.7-6l-14.7,14.1c-5.2,5-13.8,13.2-19,18.2L597,644.3c-5.2,5-5.2,13.1,0.2,18l15,13.8c5.3,4.9,14,12.9,19.4,17.8
			l15,13.8c5.3,4.9,9.6,2.1,9.5-6.2l-0.1-13.6c5.9,0,12.3-0.1,18.3-0.1C690.9,687.8,697.2,676.1,700.8,670z"/>
	</g>
	<g class="st0">
		
			<linearGradient id="SVGID_9_" gradientUnits="userSpaceOnUse" x1="-9636.4102" y1="465.9098" x2="-9278.6885" y2="465.9098" gradientTransform="matrix(-1 0 0 1 -8528.4385 0)">
			<stop  offset="0" style="stop-color:#DEF6FC"/>
			<stop  offset="0.9959" style="stop-color:#E7EDEC"/>
		</linearGradient>
		<path class="st20" d="M802,461.2c5.6,0,11,0.9,16.1,2.6c-2.7-5.8-4.2-12.2-4.2-18.9c0-24.8,20.1-44.8,44.8-44.8
			c9.3,0,18,2.9,25.2,7.7c9.5-23.8,32.8-40.6,60-40.6c31.4,0,57.5,22.4,63.3,52.1c8-2.9,16.7-4.6,25.8-4.6c41.4,0,75,33.6,75,75
			s-33.6,75-75,75H802c-28.6,0-51.7-23.2-51.7-51.7C750.2,484.4,773.4,461.2,802,461.2z"/>
		
			<linearGradient id="SVGID_10_" gradientUnits="userSpaceOnUse" x1="-9636.4102" y1="494.614" x2="-9278.6895" y2="494.614" gradientTransform="matrix(-1 0 0 1 -8528.4385 0)">
			<stop  offset="0" style="stop-color:#DAEFFF"/>
			<stop  offset="0.9959" style="stop-color:#E3E3E3"/>
		</linearGradient>
		<path class="st21" d="M1005,536.8c41.4,0,75-33.6,75-75c0-13.5-3.6-26.2-9.9-37.2c22.6,12.9,37.8,37.2,37.8,65.1
			c0,41.4-33.6,75-75,75H802c-21.5,0-40-13.2-47.8-31.9c6.1,2.5,12.8,4,19.9,4H1005z"/>
	</g>
	<g class="st0">
		
			<linearGradient id="SVGID_11_" gradientUnits="userSpaceOnUse" x1="-9027.9668" y1="338.5012" x2="-8801.8486" y2="338.5012" gradientTransform="matrix(-1 0 0 1 -8528.4385 0)">
			<stop  offset="0" style="stop-color:#DEF6FC"/>
			<stop  offset="0.9959" style="stop-color:#E7EDEC"/>
		</linearGradient>
		<path class="st22" d="M306.1,335.5c3.5,0,7,0.6,10.2,1.6c-1.7-3.6-2.7-7.7-2.7-12c0-15.7,12.7-28.3,28.3-28.3
			c5.9,0,11.4,1.8,15.9,4.9c6-15,20.7-25.7,37.9-25.7c19.8,0,36.4,14.2,40,32.9c5.1-1.9,10.6-2.9,16.3-2.9
			c26.2,0,47.4,21.2,47.4,47.4c0,26.2-21.2,47.4-47.4,47.4h-146c-18.1,0-32.7-14.6-32.7-32.7C273.4,350.2,288.1,335.5,306.1,335.5z"
			/>
		
			<linearGradient id="SVGID_12_" gradientUnits="userSpaceOnUse" x1="-9027.9668" y1="356.6452" x2="-8801.8496" y2="356.6452" gradientTransform="matrix(-1 0 0 1 -8528.4385 0)">
			<stop  offset="0" style="stop-color:#DAEFFF"/>
			<stop  offset="0.9959" style="stop-color:#E3E3E3"/>
		</linearGradient>
		<path class="st23" d="M434.5,383.3c26.2,0,47.4-21.2,47.4-47.4c0-8.6-2.3-16.6-6.2-23.5c14.3,8.2,23.9,23.5,23.9,41.2
			c0,26.2-21.2,47.4-47.4,47.4h-146c-13.6,0-25.3-8.3-30.2-20.1c3.9,1.6,8.1,2.5,12.6,2.5H434.5z"/>
	</g>
	<g class="st0">
		
			<linearGradient id="SVGID_13_" gradientUnits="userSpaceOnUse" x1="-9419.2363" y1="730.215" x2="-9273.7002" y2="730.215" gradientTransform="matrix(-1 0 0 1 -8528.4385 0)">
			<stop  offset="0" style="stop-color:#DEF6FC"/>
			<stop  offset="0.9959" style="stop-color:#E7EDEC"/>
		</linearGradient>
		<path class="st24" d="M766.3,728.3c2.3,0,4.5,0.4,6.5,1c-1.1-2.3-1.7-4.9-1.7-7.7c0-10.1,8.2-18.2,18.2-18.2
			c3.8,0,7.3,1.2,10.2,3.1c3.9-9.7,13.3-16.5,24.4-16.5c12.8,0,23.4,9.1,25.8,21.2c3.3-1.2,6.8-1.9,10.5-1.9
			c16.9,0,30.5,13.7,30.5,30.5s-13.7,30.5-30.5,30.5h-94c-11.6,0-21-9.4-21-21C745.3,737.7,754.7,728.3,766.3,728.3z"/>
		
			<linearGradient id="SVGID_14_" gradientUnits="userSpaceOnUse" x1="-9419.2363" y1="741.8931" x2="-9273.7002" y2="741.8931" gradientTransform="matrix(-1 0 0 1 -8528.4385 0)">
			<stop  offset="0" style="stop-color:#DAEFFF"/>
			<stop  offset="0.9959" style="stop-color:#E3E3E3"/>
		</linearGradient>
		<path class="st25" d="M848.9,759c16.9,0,30.5-13.7,30.5-30.5c0-5.5-1.5-10.7-4-15.1c9.2,5.3,15.4,15.2,15.4,26.5
			c0,16.9-13.7,30.5-30.5,30.5h-94c-8.8,0-16.3-5.4-19.4-13c2.5,1,5.2,1.6,8.1,1.6H848.9z"/>
	</g>
</g>
</svg>
